<mxfile host="app.diagrams.net" modified="2022-10-24T10:00:07.771Z" agent="5.0 (Windows NT 10.0; Win64; x64) AppleWebKit/537.36 (KHTML, like Gecko) Chrome/106.0.0.0 Safari/537.36" etag="EpI7h82-0E2Kus5htoF8" version="20.5.1" type="github">
  <diagram id="jRbJIFNN5RRz2F9CS1gQ" name="Page-1">
    <mxGraphModel dx="1072" dy="736" grid="1" gridSize="10" guides="1" tooltips="1" connect="1" arrows="1" fold="1" page="1" pageScale="1" pageWidth="827" pageHeight="1169" math="0" shadow="0">
      <root>
        <mxCell id="0" />
        <mxCell id="1" parent="0" />
        <mxCell id="n9khiCdqI2X91COOHRAN-1" value="Crestron&lt;br&gt;Processor" style="rounded=1;whiteSpace=wrap;html=1;" vertex="1" parent="1">
          <mxGeometry x="280" y="60" width="120" height="60" as="geometry" />
        </mxCell>
        <mxCell id="n9khiCdqI2X91COOHRAN-2" value="IOT Devices" style="rounded=1;whiteSpace=wrap;html=1;" vertex="1" parent="1">
          <mxGeometry x="455" y="60" width="120" height="60" as="geometry" />
        </mxCell>
        <mxCell id="n9khiCdqI2X91COOHRAN-3" value="API / Controller&amp;nbsp;Layer" style="rounded=1;whiteSpace=wrap;html=1;" vertex="1" parent="1">
          <mxGeometry x="220" y="200" width="210" height="60" as="geometry" />
        </mxCell>
        <mxCell id="n9khiCdqI2X91COOHRAN-4" value="" style="shape=flexArrow;endArrow=classic;startArrow=classic;html=1;rounded=0;entryX=0.5;entryY=1;entryDx=0;entryDy=0;" edge="1" parent="1" target="n9khiCdqI2X91COOHRAN-1">
          <mxGeometry width="100" height="100" relative="1" as="geometry">
            <mxPoint x="340" y="200" as="sourcePoint" />
            <mxPoint x="460" y="340" as="targetPoint" />
          </mxGeometry>
        </mxCell>
        <mxCell id="n9khiCdqI2X91COOHRAN-5" value="TCP/IP" style="text;html=1;resizable=0;autosize=1;align=center;verticalAlign=middle;points=[];fillColor=none;strokeColor=none;rounded=0;" vertex="1" parent="1">
          <mxGeometry x="270" y="150" width="60" height="30" as="geometry" />
        </mxCell>
        <mxCell id="n9khiCdqI2X91COOHRAN-7" value="Service Layer" style="rounded=1;whiteSpace=wrap;html=1;" vertex="1" parent="1">
          <mxGeometry x="220" y="300" width="430" height="60" as="geometry" />
        </mxCell>
        <mxCell id="n9khiCdqI2X91COOHRAN-8" value="API / Controller" style="rounded=1;whiteSpace=wrap;html=1;" vertex="1" parent="1">
          <mxGeometry x="440" y="200" width="210" height="60" as="geometry" />
        </mxCell>
        <mxCell id="n9khiCdqI2X91COOHRAN-9" value="" style="shape=flexArrow;endArrow=classic;startArrow=classic;html=1;rounded=0;entryX=0.5;entryY=1;entryDx=0;entryDy=0;" edge="1" parent="1">
          <mxGeometry width="100" height="100" relative="1" as="geometry">
            <mxPoint x="520" y="200" as="sourcePoint" />
            <mxPoint x="520" y="120" as="targetPoint" />
          </mxGeometry>
        </mxCell>
        <mxCell id="n9khiCdqI2X91COOHRAN-10" value="Client" style="text;html=1;resizable=0;autosize=1;align=center;verticalAlign=middle;points=[];fillColor=none;strokeColor=none;rounded=0;" vertex="1" parent="1">
          <mxGeometry x="215" y="75" width="50" height="30" as="geometry" />
        </mxCell>
        <mxCell id="n9khiCdqI2X91COOHRAN-11" value="TCP/IP Server" style="text;html=1;resizable=0;autosize=1;align=center;verticalAlign=middle;points=[];rounded=0;fillColor=#f5f5f5;fontColor=#333333;strokeColor=#666666;" vertex="1" parent="1">
          <mxGeometry x="200" y="180" width="100" height="30" as="geometry" />
        </mxCell>
        <mxCell id="n9khiCdqI2X91COOHRAN-13" value="Data Access Layer" style="rounded=1;whiteSpace=wrap;html=1;" vertex="1" parent="1">
          <mxGeometry x="220" y="390" width="430" height="60" as="geometry" />
        </mxCell>
        <mxCell id="n9khiCdqI2X91COOHRAN-14" value="Restful Server" style="text;html=1;resizable=0;autosize=1;align=center;verticalAlign=middle;points=[];rounded=0;fillColor=#f5f5f5;fontColor=#333333;strokeColor=#666666;" vertex="1" parent="1">
          <mxGeometry x="570" y="180" width="100" height="30" as="geometry" />
        </mxCell>
        <mxCell id="n9khiCdqI2X91COOHRAN-15" value="Logic" style="text;html=1;resizable=0;autosize=1;align=center;verticalAlign=middle;points=[];rounded=0;fillColor=#f5f5f5;fontColor=#333333;strokeColor=#666666;" vertex="1" parent="1">
          <mxGeometry x="210" y="280" width="50" height="30" as="geometry" />
        </mxCell>
        <mxCell id="n9khiCdqI2X91COOHRAN-16" value="Database" style="text;html=1;resizable=0;autosize=1;align=center;verticalAlign=middle;points=[];rounded=0;fillColor=#f5f5f5;fontColor=#333333;strokeColor=#666666;" vertex="1" parent="1">
          <mxGeometry x="210" y="380" width="70" height="30" as="geometry" />
        </mxCell>
      </root>
    </mxGraphModel>
  </diagram>
</mxfile>
